<svg viewBox="0 0 145 68" role="img" aria-label="RG58 coaxial cable cutaway">
<defs><linearGradient id="outer" x1="0" x2="1"><stop stop-color="#1a222e"/><stop offset="1" stop-color="#414b58"/></linearGradient></defs>
<path d="M4 15h45v27H4z" fill="url(#outer)"/>
<path d="M49 15h30v27H49z" fill="#a8b0b8" stroke="#68717b"/>
<path d="M79 19h30v19H79z" fill="#e1e1df" stroke="#979b9c"/>
<path d="M109 25h29v7h-29z" fill="#d7a844" stroke="#745b24"/>
<path d="M49 16 79 41M54 15 84 42M60 15 90 42M66 15 96 42M72 15 102 42M78 15 108 38M49 42 79 15M55 42 85 15M61 42 91 15M67 42 97 15M73 42 103 15" stroke="#4f5963" stroke-width=".7"/>
<g fill="#1d315f"><circle cx="15" cy="55" r="5"/><circle cx="56" cy="55" r="5"/><circle cx="93" cy="55" r="5"/><circle cx="128" cy="55" r="5"/></g>
<g fill="#fff" font-family="Arial, sans-serif" font-size="6" font-weight="700" text-anchor="middle"><text x="15" y="57">1</text><text x="56" y="57">2</text><text x="93" y="57">3</text><text x="128" y="57">4</text></g>
</svg>
