<svg viewBox="0 0 128 128" role="img" aria-label="Simplified Smith chart">
<rect width="128" height="128" rx="12" fill="#ffffff"/>
<circle cx="64" cy="64" r="51" fill="#ffffff" stroke="#526078" stroke-width="2.6"/>
<path d="M13 64h102" stroke="#526078" stroke-width="2"/>
<g fill="none" stroke="#b8c1ce" stroke-width="1.5">
  <circle cx="89.5" cy="64" r="25.5"/>
  <circle cx="102" cy="64" r="13"/>
  <circle cx="108.5" cy="64" r="6.5"/>
  <path d="M115 64C100 31 66 22 38 36C27 42 19 52 13 64"/>
  <path d="M115 64C100 97 66 106 38 92C27 86 19 76 13 64"/>
  <path d="M115 64C105 44 84 39 66 47C57 51 50 57 45 64"/>
  <path d="M115 64C105 84 84 89 66 81C57 77 50 71 45 64"/>
  <path d="M115 64C109 53 97 50 87 54C82 56 78 60 75 64"/>
  <path d="M115 64C109 75 97 78 87 74C82 72 78 68 75 64"/>
</g>
<path d="M64 64c9 1 16 5 23 12" fill="none" stroke="#7a6427" stroke-width="2.4" stroke-linecap="round"/>
<circle cx="87" cy="76" r="5.3" fill="#edbf63" stroke="#72581c" stroke-width="1.8"/>
</svg>
