<svg viewBox="0 0 170 92" role="img" aria-label="Gold vernier calipers">
<defs>
  <linearGradient id="gold" x1="0" y1="0" x2="1" y2="1">
    <stop offset="0" stop-color="#fff0bd"/>
    <stop offset="0.48" stop-color="#edbf63"/>
    <stop offset="1" stop-color="#c9973e"/>
  </linearGradient>
  <linearGradient id="goldLight" x1="0" x2="1">
    <stop offset="0" stop-color="#f9df96"/>
    <stop offset="1" stop-color="#d5a64c"/>
  </linearGradient>
</defs>
<g stroke="#8d672d" stroke-width="2.1" stroke-linejoin="round" stroke-linecap="round">
  <path d="M25 42H143V54H25Z" fill="url(#gold)"/>
  <path d="M25 42V21H15V43c0 11 4 22 12 31l7 8V68l-4-5c-4-5-5-9-5-15Z" fill="url(#gold)"/>
  <path d="M25 42V14H17l-7 17h10v11Z" fill="url(#goldLight)"/>
  <path d="M54 42V20H45V42Z" fill="url(#goldLight)"/>
  <path d="M48 44H84V63H48Z" fill="url(#goldLight)"/>
  <path d="M54 63v17h8V63Z" fill="url(#gold)"/>
  <path d="M84 42V18H76l-7 16h10v8Z" fill="url(#goldLight)"/>
  <path d="M84 54v24h8V54Z" fill="url(#gold)"/>
  <path d="M143 45h18v6h-18Z" fill="#d3a34d"/>
  <path d="M54 48H78" fill="none"/>
  <circle cx="69" cy="58" r="3.3" fill="#f8e4aa"/>
</g>
<g stroke="#866227" stroke-width="1.25">
  <path d="M94 44v7M102 44v4M110 44v7M118 44v4M126 44v7M134 44v4"/>
  <path d="M52 47v8M58 47v5M64 47v8M70 47v5M76 47v8"/>
</g>
<path d="M30 45H140" stroke="#fff1c8" stroke-width="1.3" opacity=".7"/>
</svg>
