<svg xmlns="&#x68;&#x74;&#x74;&#x70;&#x3A;&#x2F;&#x2F;&#x77;&#x77;&#x77;&#x2E;&#x77;&#x33;&#x2E;&#x6F;&#x72;&#x67;&#x2F;&#x32;&#x30;&#x30;&#x30;&#x2F;&#x73;&#x76;&#x67;" width="128" height="128" viewBox="0 0 32 32" role="img" aria-label="Gold transmitter glow">
  <defs>
    <filter id="goldTransmitterGlow" x="-60%" y="-60%" width="220%" height="220%">
      <feGaussianBlur stdDeviation="1.6" result="blur"/>
      <feFlood flood-color="#edbf63" flood-opacity="0.35" result="gold"/>
      <feComposite in="gold" in2="blur" operator="in" result="goldBlur"/>
      <feMerge>
        <feMergeNode in="goldBlur"/>
        <feMergeNode in="SourceGraphic"/>
      </feMerge>
    </filter>
  </defs>
  <g filter="url(#goldTransmitterGlow)">
    <path d="M16 12.8v16.2M11.2 29l4.8-16.2L20.8 29M10 21h12M12.6 15.1h6.8" fill="none" stroke="#edbf63" stroke-width="2.4" stroke-linecap="round" stroke-linejoin="round"/>
    <circle cx="16" cy="10" r="2.8" fill="none" stroke="#edbf63" stroke-width="2.4"/>
    <path d="M9 10.7a8.2 8.2 0 0 1 0-8.2M23 2.5a8.2 8.2 0 0 1 0 8.2M5.1 13.2a13.2 13.2 0 0 1 0-13.2M26.9 0a13.2 13.2 0 0 1 0 13.2" fill="none" stroke="#edbf63" stroke-width="2.4" stroke-linecap="round"/>
  </g>
</svg>
