<svg xmlns="&#x68;&#x74;&#x74;&#x70;&#x3A;&#x2F;&#x2F;&#x77;&#x77;&#x77;&#x2E;&#x77;&#x33;&#x2E;&#x6F;&#x72;&#x67;&#x2F;&#x32;&#x30;&#x30;&#x30;&#x2F;&#x73;&#x76;&#x67;" width="128" height="128" viewBox="3.943 4.943 24.113 21.613" role="img" aria-label="DAB">
  <circle cx="6" cy="16" r="1.4" fill="#0f172a"/>
  <circle cx="10" cy="12.5" r="1.4" fill="#0f172a"/><circle cx="10" cy="16" r="1.4" fill="#0f172a"/><circle cx="10" cy="19.5" r="1.4" fill="#0f172a"/>
  <circle cx="14" cy="9.5" r="1.4" fill="#0f172a"/><circle cx="14" cy="13" r="1.4" fill="#0f172a"/><circle cx="14" cy="16.5" r="1.4" fill="#0f172a"/><circle cx="14" cy="20" r="1.4" fill="#0f172a"/><circle cx="14" cy="23.5" r="1.4" fill="#0f172a"/>
  <circle cx="18" cy="7" r="1.4" fill="#0f172a"/><circle cx="18" cy="10.5" r="1.4" fill="#0f172a"/><circle cx="18" cy="14" r="1.4" fill="#0f172a"/><circle cx="18" cy="17.5" r="1.4" fill="#0f172a"/><circle cx="18" cy="21" r="1.4" fill="#0f172a"/><circle cx="18" cy="24.5" r="1.4" fill="#0f172a"/>
  <circle cx="22" cy="10" r="1.4" fill="#0f172a"/><circle cx="22" cy="13.5" r="1.4" fill="#0f172a"/><circle cx="22" cy="17" r="1.4" fill="#0f172a"/><circle cx="22" cy="20.5" r="1.4" fill="#0f172a"/>
  <circle cx="26" cy="13.5" r="1.4" fill="#0f172a"/><circle cx="26" cy="17" r="1.4" fill="#0f172a"/><circle cx="26" cy="20.5" r="1.4" fill="#0f172a"/>
</svg>
