<?xml version="1.0" encoding="UTF-8"?>
<svg version="1.1" viewBox="0 0 1254 1254" preserveAspectRatio="xMidYMid meet"
     xmlns="&#x68;&#x74;&#x74;&#x70;&#x3A;&#x2F;&#x2F;&#x77;&#x77;&#x77;&#x2E;&#x77;&#x33;&#x2E;&#x6F;&#x72;&#x67;&#x2F;&#x32;&#x30;&#x30;&#x30;&#x2F;&#x73;&#x76;&#x67;"
     width="1254" height="1254">
  <title>Ethernet to fibre cable icon</title>
  <desc>The exact swapped Ethernet connector is colour-inverted into the same dark filled style as the fibre connector.</desc>

  <defs>
    <clipPath id="ethernetTopClip">
      <rect x="210" y="85" width="310" height="475"/>
    </clipPath>
  </defs>

  <path d="M493 626 V833 C493 924 550 978 625 978 C700 978 757 924 757 833 V573"
        fill="none"
        stroke="#373737"
        stroke-width="54"
        stroke-linecap="butt"
        stroke-linejoin="round"/>

  <g transform="translate(394.050 220.000) scale(0.727575) translate(-226 -103)">
    <path d="M 264 103 L 255 107 L 243 123 L 243 271 L 233 272 L 226 279 L 226 427 L 289 551 L 319 552 L 320 589 L 329 599 L 336 602 L 336 698 L 345 704 L 378 704 L 387 698 L 387 603 L 401 592 L 404 585 L 404 552 L 432 551 L 436 548 L 497 425 L 497 280 L 490 272 L 480 271 L 480 126 L 476 115 L 468 107 L 458 103 Z"
          fill="#373737"/>

    <g clip-path="url(#ethernetTopClip)">
      <path d="M 264 103 L 255 107 L 243 123 L 243 271 L 233 272 L 226 279 L 226 427 L 289 551 L 319 552 L 320 589 L 329 599 L 336 602 L 336 698 L 345 704 L 378 704 L 387 698 L 387 603 L 401 592 L 404 585 L 404 552 L 432 551 L 436 548 L 497 425 L 497 280 L 490 272 L 480 271 L 480 126 L 476 115 L 468 107 L 458 103 Z M 354 602 L 368 602 L 369 603 L 369 686 L 368 687 L 355 687 L 353 685 L 353 603 Z M 336 552 L 337 551 L 385 551 L 386 552 L 386 582 L 384 585 L 339 585 L 336 582 Z M 244 290 L 326 290 L 328 293 L 327 346 L 335 362 L 344 370 L 355 374 L 367 374 L 378 370 L 388 362 L 395 346 L 396 290 L 480 291 L 480 415 L 453 416 L 446 422 L 446 428 L 451 433 L 472 433 L 473 436 L 423 534 L 299 534 L 249 436 L 250 433 L 424 433 L 429 423 L 422 416 L 244 416 Z M 319 498 L 320 505 L 327 510 L 395 510 L 400 508 L 404 503 L 404 498 L 398 492 L 325 492 Z M 285 466 L 285 469 L 287 472 L 293 476 L 429 476 L 434 474 L 438 469 L 437 468 L 438 466 L 435 462 L 435 460 L 430 458 L 293 458 L 288 460 Z M 346 239 L 377 239 L 378 240 L 378 343 L 374 351 L 368 356 L 364 357 L 363 356 L 360 357 L 358 356 L 357 357 L 353 354 L 351 354 L 347 350 L 345 345 L 345 240 Z M 405 121 L 419 121 L 420 122 L 420 170 L 419 171 L 405 171 L 404 170 L 404 122 Z M 371 121 L 385 121 L 386 122 L 386 170 L 385 171 L 371 171 L 370 170 L 370 122 Z M 337 121 L 352 121 L 353 122 L 353 170 L 352 171 L 337 171 L 336 170 L 336 122 Z M 303 121 L 318 121 L 319 122 L 319 170 L 318 171 L 303 171 L 302 170 L 302 155 L 303 154 L 302 153 L 302 122 Z M 261 125 L 265 121 L 285 122 L 285 181 L 291 188 L 432 188 L 436 185 L 438 180 L 437 122 L 457 121 L 463 128 L 463 271 L 396 272 L 395 228 L 391 222 L 336 221 L 331 223 L 327 228 L 327 272 L 261 272 Z"
            fill="#fdfdfd"
            fill-rule="evenodd"
            clip-rule="evenodd"/>
    </g>

    <path d="M 264 103 L 255 107 L 243 123 L 243 271 L 233 272 L 226 279 L 226 427 L 289 551 L 319 552 L 320 589 L 329 599 L 336 602 L 336 698 L 345 704 L 378 704 L 387 698 L 387 603 L 401 592 L 404 585 L 404 552 L 432 551 L 436 548 L 497 425 L 497 280 L 490 272 L 480 271 L 480 126 L 476 115 L 468 107 L 458 103 Z"
          fill="none"
          stroke="#373737"
          stroke-width="18"
          stroke-linejoin="round"/>
  </g>

  <path d="M720 267 V228 A14 14 0 0 1 748 228 V267"
        fill="none"
        stroke="#373737"
        stroke-width="8"
        stroke-linecap="round"/>

  <path d="M766 267 V228 A14 14 0 0 1 794 228 V267"
        fill="none"
        stroke="#373737"
        stroke-width="8"
        stroke-linecap="round"/>

  <g fill="#373737">
    <path d="M704 267 H809 Q821 267 821 279 V311 H831 Q842 311 842 323 V441 L809 529 Q757 510 705 529 L672 441 V323 Q672 311 684 311 H692 V279 Q692 267 704 267 Z"/>
    <path d="M708 536 Q757 518 806 536 L806 554 Q757 538 708 554 Z"/>
    <path d="M712 561 Q757 546 802 561 L802 578 Q757 564 712 578 Z"/>
  </g>

  <path d="M730 282 V350 H784 V282"
        fill="none"
        stroke="#fdfdfd"
        stroke-width="8"
        stroke-linecap="square"
        stroke-linejoin="miter"/>

  <rect x="747" y="309" width="20" height="36" fill="#373737"/>

  <path d="M704 378 V438 L730 497"
        fill="none"
        stroke="#fdfdfd"
        stroke-width="7"
        stroke-linecap="round"
        stroke-linejoin="miter"/>

  <path d="M810 378 V438 L784 497"
        fill="none"
        stroke="#fdfdfd"
        stroke-width="7"
        stroke-linecap="round"
        stroke-linejoin="miter"/>

  <!-- ethernet-fibre-input-v1.0.5.svg — bottom/end of file -->
</svg>
