<svg xmlns="&#x68;&#x74;&#x74;&#x70;&#x3A;&#x2F;&#x2F;&#x77;&#x77;&#x77;&#x2E;&#x77;&#x33;&#x2E;&#x6F;&#x72;&#x67;&#x2F;&#x32;&#x30;&#x30;&#x30;&#x2F;&#x73;&#x76;&#x67;" width="128" height="128" viewBox="0 0 42 280" role="img" aria-label="RF path signal glow">
  <defs>
    <linearGradient id="pathSignalGradient" x1="21" y1="8" x2="21" y2="272" gradientUnits="userSpaceOnUse">
      <stop offset="0" stop-color="#8cff43"/>
      <stop offset="0.28" stop-color="#8cff43"/>
      <stop offset="0.46" stop-color="#f5d35f"/>
      <stop offset="0.64" stop-color="#ff9f43"/>
      <stop offset="0.82" stop-color="#ff4b32"/>
      <stop offset="1" stop-color="#ff2d2d"/>
    </linearGradient>
    <filter id="pathSignalGlow" x="-120%" y="-20%" width="340%" height="140%">
      <feGaussianBlur stdDeviation="4.2" result="blur"/>
      <feMerge>
        <feMergeNode in="blur"/>
        <feMergeNode in="blur"/>
        <feMergeNode in="SourceGraphic"/>
      </feMerge>
    </filter>
  </defs>

  <path d="M21 8V108L16 115L26 122L15 131L27 140L14 150L27 160L16 170L25 180L19 190L22 200V272"
        fill="none"
        stroke="url(#pathSignalGradient)"
        stroke-width="7"
        stroke-linecap="round"
        stroke-linejoin="round"
        filter="url(#pathSignalGlow)"/>

  <path d="M21 8V108L16 115L26 122L15 131L27 140L14 150L27 160L16 170L25 180L19 190L22 200V272"
        fill="none"
        stroke="#fff7cc"
        stroke-opacity="0.42"
        stroke-width="2.2"
        stroke-linecap="round"
        stroke-linejoin="round"/>

  <circle cx="21" cy="8" r="7.2" fill="#8cff43" filter="url(#pathSignalGlow)"/>
  <circle cx="21" cy="8" r="3.1" fill="#f8fff0"/>
  <circle cx="22" cy="200" r="5.4" fill="#f5d35f" filter="url(#pathSignalGlow)"/>
  <circle cx="21" cy="272" r="7.2" fill="#ff2d2d" filter="url(#pathSignalGlow)"/>
  <circle cx="21" cy="272" r="3.1" fill="#ffe3d9"/>
</svg>
