<svg xmlns="&#x68;&#x74;&#x74;&#x70;&#x3A;&#x2F;&#x2F;&#x77;&#x77;&#x77;&#x2E;&#x77;&#x33;&#x2E;&#x6F;&#x72;&#x67;&#x2F;&#x32;&#x30;&#x30;&#x30;&#x2F;&#x73;&#x76;&#x67;" viewBox="0 0 512 512" role="img" aria-label="Power status all good grey version">
  <defs>
    <linearGradient id="triGrad" x1="256" y1="60" x2="256" y2="384" gradientUnits="userSpaceOnUse">
      <stop offset="0" stop-color="#efefef"/>
      <stop offset="1" stop-color="#b7b7b7"/>
    </linearGradient>
  </defs>
  <path d="M256 28 C274 28 292 38 302 56 L486 374 C496 392 483 414 462 414 L50 414 C29 414 16 392 26 374 L210 56 C220 38 238 28 256 28 Z" fill="#ffffff" stroke="#8e8e8e" stroke-width="5"/>
  <path d="M256 60 C268 60 279 67 286 79 L448 360 C454 371 446 384 433 384 L79 384 C66 384 58 371 64 360 L226 79 C233 67 244 60 256 60 Z" fill="url(#triGrad)"/>
  <path d="M62 352 C135 359 205 342 256 352 C307 342 377 359 450 352" fill="none" stroke="#6b6b6b" stroke-width="16" stroke-linecap="round"/>
  <path d="M225 343 H287 C295 343 300 348 300 355 C300 362 295 367 287 367 H225 C217 367 212 362 212 355 C212 348 217 343 225 343 Z" fill="#6b6b6b"/>
  <path d="M256 125 C298 125 330 157 330 198 C330 223 318 244 306 261 C297 274 295 284 295 293 L217 293 C217 284 215 274 206 261 C194 244 182 223 182 198 C182 157 214 125 256 125 Z" fill="#6b6b6b"/>
  <path d="M216 302 H296 M223 320 H289" fill="none" stroke="#6b6b6b" stroke-width="12" stroke-linecap="round"/>
  <path d="M236 338 H276 C273 350 266 356 256 356 C246 356 239 350 236 338 Z" fill="#6b6b6b"/>
  <path d="M271 142 L234 223 L258 223 L244 296 L290 204 L265 204 Z" fill="#8a8a8a"/>
</svg>
