<svg xmlns="&#x68;&#x74;&#x74;&#x70;&#x3A;&#x2F;&#x2F;&#x77;&#x77;&#x77;&#x2E;&#x77;&#x33;&#x2E;&#x6F;&#x72;&#x67;&#x2F;&#x32;&#x30;&#x30;&#x30;&#x2F;&#x73;&#x76;&#x67;" viewBox="0 0 512 512" role="img" aria-label="Power status recently resolved">
  <defs>
    <linearGradient id="innerGrad" x1="256" y1="60" x2="256" y2="384" gradientUnits="userSpaceOnUse">
      <stop offset="0" stop-color="#ffe13f"/>
      <stop offset="1" stop-color="#ffd000"/>
    </linearGradient>
  </defs>
  <path d="M256 28 C274 28 292 38 302 56 L486 374 C496 392 483 414 462 414 L50 414 C29 414 16 392 26 374 L210 56 C220 38 238 28 256 28 Z" fill="#17b333"/>
  <path d="M256 60 C268 60 279 67 286 79 L448 360 C454 371 446 384 433 384 L79 384 C66 384 58 371 64 360 L226 79 C233 67 244 60 256 60 Z" fill="url(#innerGrad)"/>
  <path d="M217 293 C217 284 215 274 206 261 C194 244 182 223 182 198 C182 157 214 125 256 125 C298 125 330 157 330 198 C330 223 318 244 306 261 C297 274 295 284 295 293" fill="none" stroke="#111111" stroke-width="12" stroke-linecap="round" stroke-linejoin="round"/>
  <path d="M216 302 H296 M223 320 H289 M236 338 H276" fill="none" stroke="#111111" stroke-width="11" stroke-linecap="round"/>
  <path d="M174 384 H338" fill="none" stroke="#111111" stroke-width="16" stroke-linecap="round"/>
  <path d="M227 207 L247 227 L292 182" fill="none" stroke="#17b333" stroke-width="20" stroke-linecap="round" stroke-linejoin="round"/>
</svg>
