<svg xmlns="&#x68;&#x74;&#x74;&#x70;&#x3A;&#x2F;&#x2F;&#x77;&#x77;&#x77;&#x2E;&#x77;&#x33;&#x2E;&#x6F;&#x72;&#x67;&#x2F;&#x32;&#x30;&#x30;&#x30;&#x2F;&#x73;&#x76;&#x67;" viewBox="-96 -96 582 1036" preserveAspectRatio="xMidYMid meet">
<defs>
<linearGradient id="c" x1="0" y1="0" x2="390" y2="844" gradientUnits="userSpaceOnUse"><stop stop-opacity="0"/><stop offset=".18" stop-color="#37b7ff" stop-opacity=".25"/><stop offset=".38" stop-color="#d0fbff" stop-opacity=".78"/><stop offset=".56" stop-color="#75dcff" stop-opacity=".88"/><stop offset=".78" stop-color="#1d87db" stop-opacity=".32"/><stop offset="1" stop-opacity="0"/></linearGradient>
<linearGradient id="l" x1="0" y1="744" x2="390" y2="422" gradientUnits="userSpaceOnUse"><stop stop-opacity="0"/><stop offset=".18" stop-color="#32aaf7" stop-opacity=".2"/><stop offset=".44" stop-color="#c4f9ff" stop-opacity=".42"/><stop offset=".72" stop-color="#2a9dea" stop-opacity=".2"/><stop offset="1" stop-opacity="0"/></linearGradient>
<linearGradient id="g" x1="0" y1="744" x2="390" y2="422" gradientUnits="userSpaceOnUse"><stop stop-opacity="0"/><stop offset=".3" stop-color="#e5ba58" stop-opacity=".22"/><stop offset=".5" stop-color="#fff2bc"/><stop offset=".64" stop-color="#ffd66b" stop-opacity=".78"/><stop offset="1" stop-opacity="0"/></linearGradient>
<linearGradient id="s" x1="0" y1="0" x2="390" y2="246" gradientUnits="userSpaceOnUse"><stop stop-opacity="0"/><stop offset=".2" stop-color="#a7f4ff" stop-opacity=".76"/><stop offset=".36" stop-color="#55d0ff" stop-opacity=".68"/><stop offset=".63" stop-color="#117fe7" stop-opacity=".22"/><stop offset="1" stop-opacity="0"/></linearGradient>
<filter id="x" x="-60%" y="-60%" width="220%" height="220%"><feGaussianBlur stdDeviation="8"/></filter><filter id="y" x="-70%" y="-70%" width="240%" height="240%"><feGaussianBlur stdDeviation="22"/></filter><filter id="z" x="-80%" y="-80%" width="260%" height="260%"><feGaussianBlur stdDeviation="38"/></filter>
<path id="t" d="M0 0C72 90 135 132 218 150C296 168 346 198 390 246"/><path id="m" d="M0 0C80 90 138 210 182 318C220 410 256 495 300 610C332 692 362 765 390 844"/><path id="w" d="M0 744C92 694 174 646 242 578C308 512 356 462 390 422"/>
</defs>
<g fill="none" stroke-linecap="round">
<path d="M0 0C72 90 135 132 218 150C296 168 346 198 390 246" stroke="url(#s)" stroke-width="58" filter="url(#y)" opacity=".86"/><use href="#t" stroke="url(#s)" stroke-width="16" filter="url(#x)" opacity=".9"/><use href="#t" stroke="#d6ffff" stroke-width="1.2" opacity=".42"/>
<use href="#m" stroke="#001029" stroke-width="128" filter="url(#z)" opacity=".5"/><use href="#m" stroke="url(#c)" stroke-width="88" filter="url(#y)" opacity=".88"/><use href="#m" stroke="url(#c)" stroke-width="42" filter="url(#x)" opacity=".9"/><use href="#m" stroke="url(#c)" stroke-width="4" opacity=".82"/>
<use href="#w" stroke="url(#l)" stroke-width="82" filter="url(#y)" opacity=".8"/><use href="#w" stroke="url(#g)" stroke-width="22" filter="url(#x)" opacity=".9"/><use href="#w" stroke="url(#g)" stroke-width="3" opacity=".86"/>
<path d="M0 620C88 578 170 550 242 500C315 449 360 434 390 392" stroke="#bdf7ff" stroke-width="66" filter="url(#z)" opacity=".1"/>
<path d="M0 632C86 592 172 566 247 520C315 478 362 444 390 404M0 700C98 650 188 630 268 568C328 520 366 468 390 430M390 352C376 456 340 540 278 614C208 700 108 760 0 816" stroke="#9ef2ff" stroke-width="1.25" opacity=".22"/>
</g>
</svg>
