<svg xmlns="&#x68;&#x74;&#x74;&#x70;&#x3A;&#x2F;&#x2F;&#x77;&#x77;&#x77;&#x2E;&#x77;&#x33;&#x2E;&#x6F;&#x72;&#x67;&#x2F;&#x32;&#x30;&#x30;&#x30;&#x2F;&#x73;&#x76;&#x67;" viewBox="-86 -86 172 172" role="img" aria-label="RF mesh halo icon">
  <title>RF mesh halo</title>
  <desc>Static saved RF mesh/radar halo asset. Version 1.1.52-static-rf-mesh-halo.</desc>
  <g class="rf-mesh-halo" fill="none" stroke-linecap="round" stroke-linejoin="round">
    <circle class="relay-halo-ring" r="51" stroke="rgba(201,42,31,0.24)" stroke-width="1"/>
    <circle class="relay-halo-ring" r="61" stroke="rgba(201,42,31,0.24)" stroke-width="1"/>
    <circle class="relay-halo-ring is-outer" r="72" stroke="rgba(201,42,31,0.18)" stroke-width="1"/>
    <path class="relay-halo-line" stroke="rgba(201,42,31,0.18)" stroke-width="0.7" d="M42.3 7.5L72.9 12.8 M40.4 14.7L69.5 25.3 M32.9 27.6L56.7 47.6 M27.6 32.9L47.6 56.7 M14.7 40.4L25.3 69.5 M7.5 42.3L12.8 72.9 M-7.5 42.3L-12.8 72.9 M-14.7 40.4L-25.3 69.5 M-27.6 32.9L-47.6 56.7 M-32.9 27.6L-56.7 47.6 M-40.4 14.7L-69.5 25.3 M-42.3 7.5L-72.9 12.8 M-42.3 -7.5L-72.9 -12.8 M-40.4 -14.7L-69.5 -25.3 M-32.9 -27.6L-56.7 -47.6 M-27.6 -32.9L-47.6 -56.7 M-14.7 -40.4L-25.3 -69.5 M-7.5 -42.3L-12.8 -72.9 M7.5 -42.3L12.8 -72.9 M14.7 -40.4L25.3 -69.5 M27.6 -32.9L47.6 -56.7 M32.9 -27.6L56.7 -47.6 M40.4 -14.7L69.5 -25.3 M42.3 -7.5L72.9 -12.8"/>
    <path class="relay-halo-line strong" stroke="rgba(201,42,31,0.26)" stroke-width="0.9" d="M38 0L82 0 M32.9 19L71 41 M19 32.9L41 71 M0 38L0 82 M-19 32.9L-41 71 M-32.9 19L-71 41 M-38 0L-82 0 M-32.9 -19L-71 -41 M-19 -32.9L-41 -71 M0 -38L0 -82 M19 -32.9L41 -71 M32.9 -19L71 -41 M-82 0L82 0 M0 -82L0 82"/>
  </g>
</svg>
