<svg xmlns="&#x68;&#x74;&#x74;&#x70;&#x3A;&#x2F;&#x2F;&#x77;&#x77;&#x77;&#x2E;&#x77;&#x33;&#x2E;&#x6F;&#x72;&#x67;&#x2F;&#x32;&#x30;&#x30;&#x30;&#x2F;&#x73;&#x76;&#x67;" width="128" height="128" viewBox="0 0 64 64" role="img" aria-label="RF">
  <path d="M13 12.5c-8 9-8 19.5 0 28.5" fill="none" stroke="#f5f7fb" stroke-width="5.8" stroke-linecap="round"/>
  <path d="M51 12.5c8 9 8 19.5 0 28.5" fill="none" stroke="#f5f7fb" stroke-width="5.8" stroke-linecap="round"/>
  <path d="M22 20.5c-4.5 5-4.5 10.5 0 15.5" fill="none" stroke="#f5f7fb" stroke-width="5" stroke-linecap="round"/>
  <path d="M42 20.5c4.5 5 4.5 10.5 0 15.5" fill="none" stroke="#f5f7fb" stroke-width="5" stroke-linecap="round"/>
  <circle cx="32" cy="23" r="5.8" fill="#f5f7fb"/>
  <path d="M32 30 46.2 58" fill="none" stroke="#f5f7fb" stroke-width="5.8" stroke-linecap="round"/>
  <path d="M32 30 17.8 58" fill="none" stroke="#f5f7fb" stroke-width="5.8" stroke-linecap="round"/>
  <path d="M26.4 40.2h11.2M22.8 47.3h18.4M20 54.2h24" fill="none" stroke="#f5f7fb" stroke-width="4.7" stroke-linecap="round"/>
  <path d="M26.4 40.2 20 54.2M37.6 40.2 44 54.2" fill="none" stroke="#f5f7fb" stroke-width="4.7" stroke-linecap="round"/>
</svg>
