<svg viewBox="0 0 115 85" role="img" aria-label="Frequency response chart">
<rect width="115" height="85" fill="#fff"/>
<path d="M17 8v62h90" stroke="#526078" fill="none"/>
<g stroke="#dfe3ea" stroke-width=".6"><path d="M17 20h90M17 32h90M17 44h90M17 56h90M35 8v62M54 8v62M73 8v62M92 8v62"/></g>
<path d="M19 57c11-1 15-27 29-29 18-3 26 4 38 4 10 0 9 20 18 23" fill="none" stroke="#34425c" stroke-width="2"/>
<circle cx="87" cy="32" r="4" fill="#d1ae3c" stroke="#72591d"/>
<g font-family="Arial, sans-serif" font-size="6" fill="#536078"><text x="4" y="13">dB</text><text x="7" y="23">10</text><text x="7" y="35">0</text><text x="4" y="47">-10</text><text x="4" y="59">-20</text><text x="18" y="79">1</text><text x="35" y="79">10</text><text x="52" y="79">100</text><text x="70" y="79">1k</text><text x="88" y="79">10k</text></g>
</svg>
