<svg viewBox="0 0 230 110" role="img" aria-label="Spectrum analyser plot" width="230" height="110" preserveAspectRatio="none">
<rect width="230" height="110" fill="#11182c"/>
<g stroke="#27314a" stroke-width=".6"><path d="M28 10v82M67 10v82M106 10v82M145 10v82M184 10v82M221 10v82"/><path d="M28 18h193M28 36h193M28 54h193M28 72h193M28 90h193"/></g>
<path d="M28 78 34 74 39 82 43 61 47 81 50 53 54 79 58 73 62 86 66 72 70 82 74 69 78 80 82 48 86 83 90 78 95 62 99 77 103 73 107 82 111 42 115 78 119 80 123 66 127 74 131 70 136 84 140 76 144 63 149 73 154 82 159 54 164 75 169 68 174 77 179 82 184 70 189 78 194 61 199 74 204 65 209 80 214 70 221 77" fill="none" stroke="#efd04a" stroke-width="1.5"/>
<g fill="#c6cedc" font-family="Arial, sans-serif" font-size="7"><text x="2" y="21">-20</text><text x="2" y="39">-40</text><text x="2" y="57">-60</text><text x="2" y="75">-80</text><text x="0" y="93">-100</text><text x="0" y="107">-120</text><text x="29" y="105">100 k</text><text x="75" y="105">1 M</text><text x="112" y="105">10 M</text><text x="157" y="105">100 M</text><text x="205" y="105">1 G</text></g>
</svg>
