<svg xmlns="&#x68;&#x74;&#x74;&#x70;&#x3A;&#x2F;&#x2F;&#x77;&#x77;&#x77;&#x2E;&#x77;&#x33;&#x2E;&#x6F;&#x72;&#x67;&#x2F;&#x32;&#x30;&#x30;&#x30;&#x2F;&#x73;&#x76;&#x67;" viewBox="0 0 512 512" role="img" aria-label="Thunderstorm weather symbol">
  <path d="M126 277
           C91 277 66 252 66 218
           C66 184 92 158 128 158
           C145 111 188 84 237 88
           C281 92 316 119 333 160
           C382 162 423 198 423 243
           C423 266 404 277 374 277"
        fill="none" stroke="#111111" stroke-width="32"
        stroke-linecap="round" stroke-linejoin="round"/>
  <path d="M258 292 L213 374 H250 L232 440 L306 335 H270 L292 292 Z"
        fill="#ffd51a" stroke="#111111" stroke-width="11" stroke-linejoin="round"/>
  <path d="M174 330
           C156 359 160 378 174 378
           C188 378 192 359 174 330 Z"
        fill="#1597e5"/>
  <path d="M354 330
           C336 359 340 378 354 378
           C368 378 372 359 354 330 Z"
        fill="#1597e5"/>
</svg>
