<svg xmlns="&#x68;&#x74;&#x74;&#x70;&#x3A;&#x2F;&#x2F;&#x77;&#x77;&#x77;&#x2E;&#x77;&#x33;&#x2E;&#x6F;&#x72;&#x67;&#x2F;&#x32;&#x30;&#x30;&#x30;&#x2F;&#x73;&#x76;&#x67;" width="128" height="128" viewBox="0 0 64 64" role="img" aria-label="Weather light">
  <circle cx="22" cy="20" r="9" fill="#b45309"/>
  <path d="M22 5v5M22 30v5M7 20h5M32 20h5M11.4 9.4l3.6 3.6M29 27l3.6 3.6M32.6 9.4 29 13M15 27l-3.6 3.6" fill="none" stroke="#b45309" stroke-width="3.4" stroke-linecap="round"/>
  <path d="M20 42h27c6 0 10-3.8 10-9.3 0-5.1-3.9-9-9.1-9.3C45.8 17.8 40.7 14 34.6 14c-7.2 0-13 5.1-14.2 11.9C14 26.5 9 31.6 9 38c0 2.5 1.1 4 3.5 4Z" fill="#e0f2fe" stroke="#0369a1" stroke-width="3.4" stroke-linecap="round" stroke-linejoin="round"/>
  <path d="M28 45 24 55M40 45 36 55" fill="none" stroke="#0369a1" stroke-width="3.6" stroke-linecap="round"/>
  <path d="M48 42 42 52h6l-4 8" fill="none" stroke="#b45309" stroke-width="3.8" stroke-linecap="round" stroke-linejoin="round"/>
</svg>
