<svg xmlns="&#x68;&#x74;&#x74;&#x70;&#x3A;&#x2F;&#x2F;&#x77;&#x77;&#x77;&#x2E;&#x77;&#x33;&#x2E;&#x6F;&#x72;&#x67;&#x2F;&#x32;&#x30;&#x30;&#x30;&#x2F;&#x73;&#x76;&#x67;" viewBox="0 0 512 512" role="img" aria-label="Heavy rain open cloud weather symbol">
  <path d="M124 280
           C89 280 64 255 64 222
           C64 189 90 163 126 163
           C143 118 186 92 234 96
           C278 100 312 127 329 168
           C378 170 418 206 418 250
           C418 270 401 280 376 280"
        fill="none" stroke="#111111" stroke-width="32"
        stroke-linecap="round" stroke-linejoin="round"/>
  <path d="M190 234
           C171 262 174 286 190 286
           C206 286 209 262 190 234 Z"
        fill="#1696e8"/>
  <path d="M248 246
           C226 274 232 304 248 304
           C264 304 270 274 248 246 Z"
        fill="#1696e8"/>
  <path d="M306 234
           C287 262 290 286 306 286
           C322 286 325 262 306 234 Z"
        fill="#1696e8"/>
</svg>
