{"scene":0,"scenes":[{"nodes":[0]}],"asset":{"version":"2.0","generator":"https://github.com/mikedh/trimesh"},"accessors":[{"componentType":5125,"type":"SCALAR","bufferView":0,"count":135000,"max":[38656],"min":[0]},{"componentType":5126,"type":"VEC3","byteOffset":0,"bufferView":1,"count":38657,"max":[110.41451263427734,60.275001525878906,110.41451263427734],"min":[-110.41451263427734,0.011252040974795818,-110.41451263427734]},{"componentType":5121,"normalized":true,"type":"VEC4","byteOffset":0,"bufferView":2,"count":38657,"max":[13,63,82,255],"min":[13,63,82,255]}],"meshes":[{"name":"geometry_0","extras":{"units":"meters","from_gltf_primitive":false,"processed":true},"primitives":[{"attributes":{"POSITION":1,"COLOR_0":2},"indices":0,"mode":4}]}],"nodes":[{"name":"world","children":[1]},{"name":"geometry_0","mesh":0}],"buffers":[{"uri":"data:application/octet-stream;base64,","byteLength":540000},{"uri":"data:application/octet-stream;base64,","byteLength":463884},{"uri":"data:application/octet-stream;base64,","byteLength":154628}],"bufferViews":[{"buffer":0,"byteOffset":0,"byteLength":540000},{"buffer":1,"byteOffset":0,"byteLength":463884},{"buffer":2,"byteOffset":0,"byteLength":154628}]}
